<?xml version="1.0" encoding="UTF-8"?>
<svg id="_レイヤー_1" xmlns="http://www.w3.org/2000/svg" viewBox="0 0 288.93 48.96">
    <defs>
        <style>.cls-1{fill:#f29600;}</style>
    </defs>
    <g>
        <path class="cls-1"
              d="M8.67,43.72c7.44,6.79,18.96,6.61,26.16-.58,0,0,0,0,0,0,6.16-6.15,7.18-15.48,3.1-22.7l2.82-2.82,1.26,1.24,3-8.54-8.51,3.09,1.26,1.24L8.67,43.72Z"/>
        <path class="cls-1"
              d="M33.83,14.39c-.06-.19-.15-.37-.3-.52-.26-.26-.59-.38-.92-.38-.3,0-.6,.1-.82,.33l-12.04,12.03c-.46,.46-1.25,.44-1.74-.05-.49-.49-.52-1.28-.05-1.74l12.03-12.02,.02-.02c.46-.46,.44-1.25-.05-1.74-.49-.49-1.27-.52-1.74-.05l-.81,.81-11.23,11.22c-.46,.46-1.25,.44-1.74-.05-.49-.49-.52-1.27-.05-1.74l10.05-10.04,1.99-1.99c.46-.46,.44-1.25-.05-1.74-.49-.49-1.27-.52-1.74-.05l-3.63,3.63-8.41,8.4c-.46,.46-1.25,.44-1.74-.05-.49-.49-.52-1.28-.05-1.74l5.96-5.96,6.08-6.07c.46-.46,.44-1.25-.05-1.74-.49-.49-1.27-.52-1.74-.05L8.64,15.45c-.17,.16-.35,.3-.51,.46h0c-.16,.16-.31,.34-.46,.51-2.21,2.37-3.73,5.16-4.53,8.11-.38,1.39-.59,2.81-.66,4.24-.05,1.15,0,2.29,.15,3.43,.13,1,.32,2,.61,2.97,.26,.88,.61,1.74,1,2.59,.12,.27,.26,.53,.39,.79L.62,42.57c-.82,.82-.82,2.15,0,2.98,.82,.82,2.15,.82,2.98,0l3.42-3.42s0,0,.01,.01l13.67-13.66,12.88-12.87c.32-.32,.39-.79,.25-1.22Z"/>
    </g>
    <g>
        <g>
            <path class="cls-1"
                  d="M77.71,22.92s0,0,0,0c-.25-.13-.54-.27-.83-.37-1.81-.8-3.87-1.21-6.13-1.21h-9.46c-2.3,0-4.37,.41-6.13,1.19-.32,.12-.61,.25-.86,.39-2.1,1.14-3.16,2.58-3.16,4.3v16.92c0,1.43,.87,2.62,2.58,3.55,1.55,.84,3.44,1.26,5.61,1.26s4.01-.42,5.58-1.26c1.73-.93,2.61-2.12,2.61-3.55V25.95c0-.18,.16-.34,.34-.34h2.9c1.08,0,2,.21,2.74,.61,.58,.32,.87,.66,.87,1v16.51c0,.09,.02,.18,.05,.26l-.05,2.43c0,1.09,.89,1.98,1.98,1.98h2.6c1.09,0,1.98-.89,1.98-1.98V27.22c0-1.72-1.08-3.16-3.2-4.3Zm-20.09,4.3c0-.34,.3-.68,.89-1,.69-.38,1.53-.58,2.5-.61,0,.08,0,.19,0,.34v18.2h0s-.04,.1-.31,.25c-.37,.2-.84,.3-1.39,.3s-1.02-.1-1.39-.3c-.27-.15-.31-.25-.31-.25V27.22Z"/>
            <path class="cls-1"
                  d="M172.77,31.37c-1.29-.7-3.39-1.27-4.57-1.56l1.69-1.1c.61-.4,1.43-1.16,1.88-1.73,.06-.07,.57-.76,.57-1.72,0-.9-.42-2.15-2.43-3.02-1.4-.6-3.76-.8-3.86-.8-.65-.05-1.72-.1-2.38-.1h-10.83c-1.09,0-1.98,.89-1.98,1.98v.32c0,1.09,.89,1.98,1.98,1.98h10.83c.46,0,1.07,.01,1.52,.03-.13,.1-.25,.2-.36,.27l-11.03,7.25c-.51,.34-.78,.82-.74,1.34,.04,.51,.38,.95,.94,1.21l1.64,.74c.84,.38,2.04,.28,2.81-.22l1.77-1.17s0,0,0,0l1.75-1.15c.37-.25,1.14-.43,1.59-.39,.97,.1,3.77,.49,4.99,1.16,1.61,.88,2.4,2.06,2.4,3.61,0,2.04-1.19,3.58-3.63,4.68-2.18,.98-7.37,1.4-7.42,1.41-1.05,.08-1.91,1.01-1.91,2.06v.32c0,.53,.22,1.04,.61,1.39,.34,.31,.79,.48,1.26,.48,.06,0,.12,0,.18,0,.35-.03,8.68-.82,12.06-2.65,3.54-1.92,5.34-4.51,5.34-7.68,0-2.91-1.57-5.24-4.67-6.91Z"/>
            <path class="cls-1"
                  d="M148.12,35.88h-2.54c-1.09,0-1.98,.89-1.98,1.98v.88c0,.42,0-.64-.02-.11-.06,1.78-.52,3.15-1.39,4.14-.82,.86-2.17,1.66-4.42,1.87-.05,0-.11,0-.16,0-.33,.02-.67,.04-1.03,.04-.36,0-.7-.02-1.03-.04-.05,0-.11,0-.16,0h0c-1.26-.1-2.31-.37-3.11-.81-1.73-.96-2.61-2.66-2.69-5.19-.01-.54-.02-1.13-.02-1.55v-14.47c0-1.09-.89-1.98-1.98-1.98h-2.54c-1.09,0-1.98,.89-1.98,1.98v15.63c0,4.08,1.67,7.07,4.97,8.88,2.23,1.21,5.09,1.82,8.5,1.83h0s.02,0,.03,0,.02,0,.03,0c3.44,0,6.32-.62,8.56-1.83,.36-.19,.68-.42,.98-.66,2.6-1.84,3.93-4.6,3.93-8.22v-.39c0-1.09-.89-1.98-1.98-1.98Z"/>
            <path class="cls-1"
                  d="M113.77,23.34h-6.1c-1.09,0-1.98,.89-1.98,1.98v13.2c0,3.61-1.38,5.53-4.35,6.04l-.3,.05c-.11,.02-.23,.03-.37,.04-.33,.03-.67,.05-1.04,.05-1.37,0-2.52-.25-3.42-.73-1.74-.94-2.58-2.72-2.58-5.49l-.05-.8c.03-.09,.05-.2,.05-.32v-14.04c0-1.09-.89-1.98-1.98-1.98h-6.22c-1.09,0-1.98,.89-1.98,1.98v.32c0,1.09,.89,1.98,1.98,1.98h1.37c.18,0,.34,.16,.34,.34v12.57c0,4.06,1.63,7,4.85,8.75,2.08,1.13,4.65,1.7,7.64,1.7s5.62-.57,7.7-1.7c3.22-1.75,4.85-4.69,4.85-8.75v-10.91h1.59c1.09,0,1.98-.89,1.98-1.98v-.32c0-1.09-.89-1.98-1.98-1.98Z"/>
        </g>
        <path class="cls-1"
              d="M118.63,19.66c-.69,0-1.29,.24-1.8,.72-.51,.48-.78,1.1-.78,1.79s.27,1.3,.77,1.8c.5,.49,1.13,.75,1.81,.75s1.32-.26,1.8-.76c.49-.49,.74-1.11,.74-1.79s-.26-1.3-.75-1.78c-.49-.48-1.11-.73-1.79-.73Z"/>
        <path class="cls-1"
              d="M118.63,25.42c-.69,0-1.3,.24-1.8,.72-.51,.48-.78,1.1-.78,1.79s.27,1.3,.77,1.8c.5,.49,1.13,.75,1.81,.75s1.32-.26,1.8-.76c.48-.49,.74-1.11,.74-1.79s-.26-1.3-.75-1.78c-.49-.48-1.11-.73-1.79-.73Z"/>
    </g>
    <g>
        <path class="cls-1"
              d="M62.56,13.49c0,.7-.22,1.09-.85,1.2-.4,.08-1.44,.06-2.16,.03l-.21-1.15c.53,.03,1.31,.03,1.55,.02,.24-.02,.32-.13,.32-.34v-4.02h-3.81V3.46h3.36c.18-.58,.35-1.17,.48-1.68h-5.3v3.83c0,3.06-.38,6.13-1.57,8.74l-1.17-.7c1.14-2.38,1.46-5.17,1.46-8.02V.62h13.29V1.78h-5.22c-.18,.51-.38,1.1-.62,1.68h4.45v5.78h-4v4.26Zm-2.99-3.12c-.61,1.36-1.63,2.72-2.69,3.68l-1.14-.54c1.04-.91,2.03-2.19,2.62-3.54l1.2,.4Zm-.88-4.47h6.55v-1.44h-6.55v1.44Zm0,2.32h6.55v-1.49h-6.55v1.49Zm6.63,1.65c1.14,1.28,1.98,2.47,2.56,3.55l-1.23,.51c-.53-1.1-1.34-2.31-2.42-3.57l1.09-.5Z"/>
        <path class="cls-1"
              d="M74.51,14.74h-1.26V6.53c-.43,.8-.9,1.58-1.39,2.32l-.77-1.07c1.55-2.27,2.75-5.09,3.35-7.76l1.23,.27c-.29,1.15-.67,2.35-1.15,3.52V14.74Zm2.51-.74v.72h-1.18V4.98h2.82V2.08h-2.98V.87h10.44v1.22h-3.43v2.9h2.91V14.73h-1.23v-.72h-7.35Zm1.63-1.22V6.2h-1.63v6.59h1.63Zm2.85-7.81V2.08h-1.68v2.9h1.68Zm0,7.81V6.2h-1.68v6.59h1.68Zm2.87,0V6.2h-1.68v6.59h1.68Z"/>
        <path class="cls-1"
              d="M95.97,2.72v1.06h-6.59v-1.06h6.59Zm-4.72,6.58h4.13v4.72h-4.13v.7h-1.18v-5.43h1.18Zm4.02-4.34v1.01h-5.07v-1.01h5.07Zm0,2.16v1.01h-5.07v-1.01h5.07Zm-.16-6.56V1.57h-4.74V.56h4.74Zm-.94,12.36v-2.51h-2.91v2.51h2.91Zm5.43-7.75V.02h1.36V5.17h3.14v1.26h-3.14V14.74h-1.36V6.44h-3.31v-1.26h3.31Z"/>
        <path class="cls-1"
              d="M113.14,3.06l-1.18,.35c-.14-.46-.37-.94-.7-1.47h-1.3c-.45,.58-.99,1.1-1.6,1.57l-1.04-.58c1.1-.78,2.02-1.79,2.51-2.91l1.15,.27c-.11,.24-.22,.48-.37,.7h4.13v.94h-2.18c.24,.38,.43,.75,.58,1.12Zm-1.3,7.67v-1.1h-2.11V3.43h9.44c-.21-.48-.51-.96-.9-1.49h-1.6c-.38,.53-.85,1.01-1.36,1.44l-1.06-.56c.96-.75,1.75-1.71,2.16-2.8l1.17,.26c-.1,.24-.21,.48-.32,.72h4.82v.94h-2.4c.29,.38,.51,.75,.71,1.12l-1.2,.37h.56v6.19h-2.14v1.1h4.48v1.02h-4.48v2.99h-1.34v-2.99h-3.25c-.29,1.17-1.44,2.16-3.87,3.03l-.9-.93c2.06-.59,3.12-1.3,3.47-2.1h-4.35v-1.02h4.48Zm-.78-5.46h7.31v-1.01h-7.31v1.01Zm0,1.75h7.31v-.99h-7.31v.99Zm0,1.76h7.31v-1.02h-7.31v1.02Zm5.2,1.95v-1.1h-3.17v1.1h3.17Z"/>
        <path class="cls-1"
              d="M140.26,13.48l-.9,1.23c-2.5-.58-4.77-1.44-6.66-2.66-1.89,1.17-4.13,2.05-6.67,2.67l-.86-1.17c2.46-.53,4.63-1.3,6.37-2.32-1.34-1.07-2.48-2.34-3.33-3.84l1.07-.45h-2.43v-1.26h5.07V3.44h-6.58v-1.25h6.58V0h1.41V2.19h6.72v1.25h-6.72v2.24h3.38l1.09,.4c-.79,2.08-2.13,3.78-3.91,5.15,1.81,1.06,3.97,1.79,6.37,2.24Zm-7.56-3.01c1.33-.98,2.37-2.14,3.06-3.52h-6.21c.77,1.39,1.84,2.56,3.15,3.52Z"/>
        <path class="cls-1"
              d="M145.26,7.75v-3.49h-1.87v-1.22h1.87V.02h1.25V3.04h1.33v1.22h-1.33v3.12c.45-.13,.86-.26,1.22-.37l.11,1.12c-.4,.14-.85,.3-1.33,.48v4.64c0,.83-.21,1.31-.99,1.44-.34,.05-1.09,.05-1.68,.03l-.22-1.25c.45,.03,1.06,.05,1.26,.03,.32-.03,.38-.19,.38-.46v-4.02c-.66,.22-1.28,.42-1.76,.58l-.29-1.3c.51-.14,1.26-.34,2.05-.56Zm12.95,5.86c-.35,.46-.58,.8-.8,1.14-1.34-.37-2.61-.9-3.7-1.62-1.02,.69-2.19,1.22-3.49,1.62l-.85-1.02c1.25-.3,2.38-.77,3.33-1.36-.85-.74-1.58-1.63-2.13-2.72-.48,1.87-1.25,3.67-2.59,4.87l-1.07-.78c1.73-1.44,2.48-3.89,2.83-6.18h-1.79v-1.04h1.94c.05-.4,.08-.78,.11-1.15h-1.84v-1.04h1.49c-.16-.56-.5-1.28-.9-1.87l1.06-.42c.45,.67,.82,1.44,.98,2.02l-.74,.27h4.74c.56-.94,1.09-1.97,1.38-2.71l1.25,.48c-.32,.64-.78,1.44-1.28,2.23h1.65v1.04h-6.51c-.03,.37-.08,.75-.13,1.15h6.9v1.04h-7.03c-.06,.34-.11,.67-.18,1.01h5.19l.96,.26c-.43,1.41-1.22,2.58-2.26,3.52,1.04,.59,2.24,1.02,3.49,1.28Zm-5.44-11.8c-1.6,.14-3.23,.24-4.58,.24l-.32-1.07c2.83,.05,7.12-.38,9.27-.96l.5,1.04c-1.2,.29-2.94,.54-4.74,.74,.37,.69,.64,1.47,.75,2.05l-1.12,.37c-.1-.59-.37-1.41-.72-2.06l.96-.34Zm.93,9.83c.67-.58,1.22-1.26,1.58-2.05h-3.41c.48,.8,1.1,1.47,1.83,2.05Z"/>
        <path class="cls-1"
              d="M167.31,6.75l-.67,1.17c-1.09-.62-2.87-1.39-4.19-1.86l.64-1.18c1.46,.5,3.2,1.3,4.23,1.87Zm6.85-1.94l.93,1.06c-2.19,3.57-6.69,6.98-11.06,8.28l-.72-1.36c4.27-1.09,8.72-4.4,10.85-7.97Zm-5.2-1.55l-.67,1.14c-1.07-.66-2.79-1.46-4.1-1.95l.67-1.15c1.46,.56,3.09,1.36,4.1,1.97Z"/>
        <path class="cls-1"
              d="M193.17,13.37l-1.28,.9c-1.2-1.58-3.01-3.44-4.61-4.8-1.73,2-3.79,3.67-6,4.79l-.93-1.17c4.34-2.02,7.91-6.31,8.93-9.72h-7.91v-1.3h8.76l1.01,.58c-.66,2.05-1.7,4-3.01,5.75,1.73,1.47,3.63,3.35,5.04,4.98Z"/>
        <path class="cls-1"
              d="M201.29,14.33l-1.07-1.12c3.35-1.55,4.08-3.28,4.16-6.42h-6.34v-1.28h13.17v1.28h-5.39c-.1,3.44-.98,5.68-4.53,7.54Zm8.13-12.69v1.28h-9.59V1.63h9.59Z"/>
        <path class="cls-1"
              d="M217.55,12.02c1.41-3.51,2.77-7.48,3.7-11.14l1.49,.35c-.99,3.57-2.29,7.25-3.62,10.64,2.4-.22,5.2-.54,7.36-.83-.77-1.25-1.63-2.5-2.42-3.44l1.23-.67c1.49,1.9,3.22,4.58,4.26,6.56l-1.36,.72c-.26-.56-.59-1.22-.98-1.9-3.47,.48-8.12,.99-11,1.3l-.27-1.47c.48-.03,1.01-.06,1.6-.11Z"/>
    </g>
    <g>
        <path class="cls-1"
              d="M204.87,19.98h-12.28c-6.78,0-9.93,3.17-9.93,9.96v16.8c0,.83,.67,1.5,1.5,1.5h2.73c.83,0,1.5-.67,1.5-1.5v-9.54h15c.83,0,1.5-.67,1.5-1.5v-2.79c0-.83-.67-1.5-1.5-1.5h-15v-1.38c0-3.35,.91-4.27,4.24-4.27h12.25c.83,0,1.5-.67,1.5-1.5v-2.79c0-.83-.67-1.5-1.5-1.5Z"/>
        <path class="cls-1"
              d="M224.25,26.09h-3.88c-5.32,0-9.04,3.49-9.04,8.48v5.21c0,5.05,3.63,8.45,9.04,8.45h3.88c5.66,0,9.31-3.4,9.31-8.66v-4.77c0-5.28-3.66-8.69-9.31-8.69Zm-7.18,8.69c0-1.38,.87-3,3.31-3h4c1.29,0,3.46,.43,3.46,3.31v4.16c0,2.73-1.88,3.31-3.46,3.31h-4c-2.13,0-3.31-1.08-3.31-3.03v-4.74Z"/>
        <path class="cls-1"
              d="M251.78,26.09h-3.88c-5.32,0-9.03,3.49-9.03,8.48v5.21c0,5.05,3.63,8.45,9.03,8.45h3.88c5.66,0,9.31-3.4,9.31-8.66v-4.77c0-5.28-3.66-8.69-9.31-8.69Zm-7.18,8.69c0-1.38,.87-3,3.31-3h4c1.29,0,3.46,.43,3.46,3.31v4.16c0,2.73-1.88,3.31-3.46,3.31h-4c-2.13,0-3.31-1.08-3.31-3.03v-4.74Z"/>
        <path class="cls-1"
              d="M287.43,19.98h-2.76c-.83,0-1.5,.67-1.5,1.5v5.47c-1.28-.55-2.7-.83-4.17-.83h-3.63c-5.55,0-9,3.51-9,9.16v3.84c0,5.8,3.29,9.13,9.03,9.13h4.46c5.76,0,9.07-3.33,9.07-9.13V21.48c0-.83-.67-1.5-1.5-1.5Zm-4.26,15.67v3.22c0,2.63-1.11,3.71-3.83,3.71h-3.44c-2.7,0-3.8-1.07-3.8-3.71v-3.38c0-2.58,1.14-3.68,3.8-3.68h2.85c2.02,0,4.42,.67,4.42,3.83Z"/>
    </g>
</svg>